<svg xmlns="http://www.w3.org/2000/svg" data-name="Layer 2" viewBox="0 0 100 125" x="0px" y="0px"><path d="M70.4616629,56.3016023v23.8813241c0,1.3882412-1.1253258,2.5138378-2.5136753,2.5138378H19.5565956c-1.3883496,0-2.513892-1.1255966-2.513892-2.5138378V31.7918053c0-1.3882412,1.1255424-2.5138378,2.513892-2.5138378h28.5950611c1.3881329,0,2.513892,1.1255966,2.513892,2.5138378s-1.1257591,2.5138378-2.513892,2.5138378H22.0704876v43.3634454h43.3636079v-21.3674862c0-1.3882412,1.1255424-2.5138378,2.513892-2.5138378s2.5136753,1.1255966,2.5136753,2.5138378Zm11.7593728-25.2634447l-33.3290558,33.3290558c-.4474004,.4470754-1.0462453,.7091242-1.678239,.7343108l-9.8317595,.3887942c-.0331488,.0012458-.0665143,.0018416-.0994464,.0018416-.6653592,0-1.3051526-.2638904-1.7776854-.7361524-.4954987-.495932-.761989-1.1762406-.7342567-1.8770776l.3886859-9.832247c.0251324-.6318312,.2872896-1.2308386,.7344733-1.678239L69.2228079,18.0394424c.4714495-.4713412,1.110593-.7362066,1.7774688-.7362066s1.3060192,.2648654,1.7776854,.7364774l9.4430736,9.4431278c.981681,.9819518,.981681,2.5733648,0,3.5553167Zm-5.3326229-1.7776854l-5.8881361-5.8884069-30.8558957,30.8560582-.2424412,6.1307939,6.1305773-.242387,30.8558957-30.8560582Z"/></svg>